<svg id="vector" xmlns="http://www.w3.org/2000/svg" viewBox="0 0 16 16"><defs><style>.cls-1{fill:none;stroke:#000;stroke-linecap:round;stroke-linejoin:round;stroke-width:0.75px;}</style></defs><path class="cls-1" d="M5.69,2H2A1.51,1.51,0,0,0,.44,3.48V14.06A1.51,1.51,0,0,0,2,15.56H13.48A1.51,1.51,0,0,0,15,14.06V10.45"/><polygon class="cls-1" points="14.47 3.96 8.02 10.34 5.54 7.89 12 1.51 14.47 3.96"/><path class="cls-1" d="M15.11,3.33,14.47,4,12,1.51l.64-.63a1.53,1.53,0,0,1,2.14,0l.33.33A1.49,1.49,0,0,1,15.11,3.33Z"/><polygon class="cls-1" points="8.02 10.34 5.54 7.89 4.57 11.31 8.02 10.34"/></svg>