<svg id="vector" xmlns="http://www.w3.org/2000/svg" viewBox="0 0 16 16"><defs><style>.cls-1{fill:none;stroke:#000;stroke-linecap:round;stroke-linejoin:round;stroke-width:0.75px;}</style></defs><path class="cls-1" d="M2.92,4.48H13a0,0,0,0,1,0,0v9.61a1.5,1.5,0,0,1-1.5,1.5H4.42a1.5,1.5,0,0,1-1.5-1.5V4.48A0,0,0,0,1,2.92,4.48Z"/><path class="cls-1" d="M5.18.41h5.6a0,0,0,0,1,0,0v.93a1,1,0,0,1-1,1H6.18a1,1,0,0,1-1-1V.41A0,0,0,0,1,5.18.41Z" transform="translate(15.96 2.75) rotate(180)"/><rect class="cls-1" x="1.88" y="2.34" width="12.25" height="2.14" rx="1.07"/><line class="cls-1" x1="5.79" y1="6.19" x2="5.79" y2="13.28"/><line class="cls-1" x1="8" y1="6.19" x2="8" y2="13.28"/><line class="cls-1" x1="10.21" y1="6.19" x2="10.21" y2="13.28"/></svg>