<svg id="vector" xmlns="http://www.w3.org/2000/svg" viewBox="0 0 16 16"><defs><style>.cls-1{fill:none;stroke:#000;stroke-linecap:round;stroke-linejoin:round;stroke-width:0.75px;}</style></defs><polyline class="cls-1" points="15.54 13.98 0.46 13.98 0.46 2.02"/><path class="cls-1" d="M2.73,8.36h1.6a.5.5,0,0,1,.5.5V14a0,0,0,0,1,0,0H2.23a0,0,0,0,1,0,0V8.86A.5.5,0,0,1,2.73,8.36Z"/><path class="cls-1" d="M7.8,5.63H9.4a.5.5,0,0,1,.5.5V14a0,0,0,0,1,0,0H7.3a0,0,0,0,1,0,0V6.13A.5.5,0,0,1,7.8,5.63Z"/><path class="cls-1" d="M12.86,2h1.6a.5.5,0,0,1,.5.5V14a0,0,0,0,1,0,0h-2.6a0,0,0,0,1,0,0V2.52A.5.5,0,0,1,12.86,2Z"/></svg>