<svg id="vector" xmlns="http://www.w3.org/2000/svg" viewBox="0 0 16 16"><defs><style>.cls-1{fill:none;stroke:#000;stroke-linecap:round;stroke-linejoin:round;stroke-width:0.75px;}</style></defs><circle class="cls-1" cx="5.95" cy="1.75" r="1.37"/><circle class="cls-1" cx="1.84" cy="6.63" r="1.37"/><circle class="cls-1" cx="10.05" cy="4.83" r="1.37"/><circle class="cls-1" cx="14.16" cy="2.26" r="1.37"/><line class="cls-1" x1="11.22" y1="4.11" x2="13" y2="2.99"/><line class="cls-1" x1="7.04" y1="2.57" x2="8.96" y2="4.01"/><line class="cls-1" x1="2.72" y1="5.58" x2="5.06" y2="2.8"/><path class="cls-1" d="M1,11.56H2.62a.5.5,0,0,1,.5.5v3.56a0,0,0,0,1,0,0H.54a0,0,0,0,1,0,0V12.06A.5.5,0,0,1,1,11.56Z"/><path class="cls-1" d="M5.15,7.91H6.74a.5.5,0,0,1,.5.5v7.21a0,0,0,0,1,0,0H4.65a0,0,0,0,1,0,0V8.41A.5.5,0,0,1,5.15,7.91Z"/><path class="cls-1" d="M9.26,9.43h1.58a.5.5,0,0,1,.5.5v5.69a0,0,0,0,1,0,0H8.76a0,0,0,0,1,0,0V9.93A.5.5,0,0,1,9.26,9.43Z"/><path class="cls-1" d="M13.37,7.34H15a.5.5,0,0,1,.5.5v7.78a0,0,0,0,1,0,0H12.87a0,0,0,0,1,0,0V7.84A.5.5,0,0,1,13.37,7.34Z"/></svg>