<svg id="vector" xmlns="http://www.w3.org/2000/svg" viewBox="0 0 16 16"><defs><style>.cls-1{fill:none;stroke:#000;stroke-linecap:round;stroke-linejoin:round;stroke-width:0.75px;}</style></defs><ellipse class="cls-1" cx="12.12" cy="3.94" rx="3.45" ry="3.49"/><path class="cls-1" d="M11.41,5.32h.91A.68.68,0,0,0,13,4.64.67.67,0,0,0,12.32,4h-.4a.68.68,0,0,1-.67-.68.67.67,0,0,1,.67-.67h.91"/><line class="cls-1" x1="12.13" y1="1.95" x2="12.13" y2="2.62"/><line class="cls-1" x1="12.13" y1="5.32" x2="12.13" y2="5.99"/><polyline class="cls-1" points="8.77 3.1 2.18 3.1 2.18 12"/><path class="cls-1" d="M9.91,15.54H2.18A1.76,1.76,0,0,1,.43,13.77h0V12.49H8.16v1.28a1.76,1.76,0,1,0,3.51,0V7.43"/><circle class="cls-1" cx="4.78" cy="5.77" r="0.25"/><line class="cls-1" x1="6.46" y1="5.77" x2="9.18" y2="5.77"/><circle class="cls-1" cx="4.78" cy="7.99" r="0.25"/><line class="cls-1" x1="6.46" y1="7.99" x2="9.7" y2="7.99"/><circle class="cls-1" cx="4.78" cy="10.2" r="0.25"/><line class="cls-1" x1="6.46" y1="10.2" x2="9.7" y2="10.2"/></svg>