<svg width="181" height="111" viewBox="0 0 181 111" fill="none" xmlns="http://www.w3.org/2000/svg">
<path d="M9.67969 0.640625L9.9375 3.61719C11.7344 1.32031 14.1484 0.171875 17.1797 0.171875C20.3828 0.171875 22.5469 1.44531 23.6719 3.99219C25.3906 1.44531 27.875 0.171875 31.125 0.171875C36.2656 0.171875 38.9062 3.28125 39.0469 9.5V26H31.125V9.99219C31.125 8.69531 30.9062 7.75 30.4688 7.15625C30.0312 6.5625 29.2344 6.26562 28.0781 6.26562C26.5156 6.26562 25.3516 6.96094 24.5859 8.35156L24.6094 8.67969V26H16.6875V10.0391C16.6875 8.71094 16.4766 7.75 16.0547 7.15625C15.6328 6.5625 14.8281 6.26562 13.6406 6.26562C12.125 6.26562 10.9688 6.96094 10.1719 8.35156V26H2.27344V0.640625H9.67969Z" fill="#43DDE6"/>
<path d="M53.6953 14.9375L57.9141 0.640625H66.375L56.0391 30.2422L55.5938 31.3203C54.125 34.6016 51.5312 36.2422 47.8125 36.2422C46.7812 36.2422 45.6953 36.0859 44.5547 35.7734V30.125H45.5859C46.6953 30.125 47.5391 29.9609 48.1172 29.6328C48.7109 29.3203 49.1484 28.75 49.4297 27.9219L50.0625 26.2344L41.25 0.640625H49.6875L53.6953 14.9375Z" fill="#43DDE6"/>
<path d="M14.4844 68.4688C10.5938 68.4688 7.44531 67.3125 5.03906 65C2.63281 62.6719 1.42969 59.6484 1.42969 55.9297V55.2734C1.42969 52.6797 1.90625 50.3906 2.85938 48.4062C3.82812 46.4219 5.23438 44.8906 7.07812 43.8125C8.92188 42.7188 11.1094 42.1719 13.6406 42.1719C17.2031 42.1719 20.0156 43.2812 22.0781 45.5C24.1406 47.7031 25.1719 50.7812 25.1719 54.7344V57.8047H9.46875C9.75 59.2266 10.3672 60.3438 11.3203 61.1562C12.2734 61.9688 13.5078 62.375 15.0234 62.375C17.5234 62.375 19.4766 61.5 20.8828 59.75L24.4922 64.0156C23.5078 65.375 22.1094 66.4609 20.2969 67.2734C18.5 68.0703 16.5625 68.4688 14.4844 68.4688ZM13.5938 48.2656C11.2812 48.2656 9.90625 49.7969 9.46875 52.8594H17.4375V52.25C17.4688 50.9844 17.1484 50.0078 16.4766 49.3203C15.8047 48.6172 14.8438 48.2656 13.5938 48.2656Z" fill="#43DDE6"/>
<path d="M38.6484 49.625L42.3281 42.6406H50.5312L43.8516 54.9922L50.8594 68H42.6094L38.625 60.5L34.7109 68H26.4141L33.4453 54.9922L26.7891 42.6406H35.0859L38.6484 49.625Z" fill="#43DDE6"/>
<path d="M76.6172 55.5078C76.6172 59.4453 75.7266 62.5938 73.9453 64.9531C72.1797 67.2969 69.7891 68.4688 66.7734 68.4688C64.4453 68.4688 62.5312 67.6172 61.0312 65.9141V77.75H53.1328V42.6406H60.5156L60.75 44.9844C62.2656 43.1094 64.2578 42.1719 66.7266 42.1719C69.8516 42.1719 72.2812 43.3281 74.0156 45.6406C75.75 47.9375 76.6172 51.1016 76.6172 55.1328V55.5078ZM68.7188 55.0156C68.7188 50.5156 67.4062 48.2656 64.7812 48.2656C62.9062 48.2656 61.6562 48.9375 61.0312 50.2812V60.2656C61.7188 61.6719 62.9844 62.375 64.8281 62.375C67.3438 62.375 68.6406 60.2031 68.7188 55.8594V55.0156Z" fill="#43DDE6"/>
<path d="M92.3906 68.4688C88.5 68.4688 85.3516 67.3125 82.9453 65C80.5391 62.6719 79.3359 59.6484 79.3359 55.9297V55.2734C79.3359 52.6797 79.8125 50.3906 80.7656 48.4062C81.7344 46.4219 83.1406 44.8906 84.9844 43.8125C86.8281 42.7188 89.0156 42.1719 91.5469 42.1719C95.1094 42.1719 97.9219 43.2812 99.9844 45.5C102.047 47.7031 103.078 50.7812 103.078 54.7344V57.8047H87.375C87.6562 59.2266 88.2734 60.3438 89.2266 61.1562C90.1797 61.9688 91.4141 62.375 92.9297 62.375C95.4297 62.375 97.3828 61.5 98.7891 59.75L102.398 64.0156C101.414 65.375 100.016 66.4609 98.2031 67.2734C96.4062 68.0703 94.4688 68.4688 92.3906 68.4688ZM91.5 48.2656C89.1875 48.2656 87.8125 49.7969 87.375 52.8594H95.3438V52.25C95.375 50.9844 95.0547 50.0078 94.3828 49.3203C93.7109 48.6172 92.75 48.2656 91.5 48.2656Z" fill="#43DDE6"/>
<path d="M113.531 42.6406L113.789 45.6172C115.539 43.3203 117.953 42.1719 121.031 42.1719C123.672 42.1719 125.641 42.9609 126.938 44.5391C128.25 46.1172 128.93 48.4922 128.977 51.6641V68H121.055V51.9922C121.055 50.7109 120.797 49.7734 120.281 49.1797C119.766 48.5703 118.828 48.2656 117.469 48.2656C115.922 48.2656 114.773 48.875 114.023 50.0938V68H106.125V42.6406H113.531Z" fill="#43DDE6"/>
<path d="M146.648 60.875C146.648 60.2031 146.297 59.6641 145.594 59.2578C144.891 58.8516 143.555 58.4297 141.586 57.9922C139.617 57.5547 137.992 56.9844 136.711 56.2812C135.43 55.5625 134.453 54.6953 133.781 53.6797C133.109 52.6641 132.773 51.5 132.773 50.1875C132.773 47.8594 133.734 45.9453 135.656 44.4453C137.578 42.9297 140.094 42.1719 143.203 42.1719C146.547 42.1719 149.234 42.9297 151.266 44.4453C153.297 45.9609 154.312 47.9531 154.312 50.4219H146.391C146.391 48.3906 145.32 47.375 143.18 47.375C142.352 47.375 141.656 47.6094 141.094 48.0781C140.531 48.5312 140.25 49.1016 140.25 49.7891C140.25 50.4922 140.594 51.0625 141.281 51.5C141.969 51.9375 143.062 52.2969 144.562 52.5781C146.078 52.8594 147.406 53.1953 148.547 53.5859C152.359 54.8984 154.266 57.25 154.266 60.6406C154.266 62.9531 153.234 64.8359 151.172 66.2891C149.125 67.7422 146.469 68.4688 143.203 68.4688C141.031 68.4688 139.094 68.0781 137.391 67.2969C135.688 66.5156 134.359 65.4531 133.406 64.1094C132.453 62.7656 131.977 61.3516 131.977 59.8672H139.359C139.391 61.0391 139.781 61.8984 140.531 62.4453C141.281 62.9766 142.242 63.2422 143.414 63.2422C144.492 63.2422 145.297 63.0234 145.828 62.5859C146.375 62.1484 146.648 61.5781 146.648 60.875Z" fill="#43DDE6"/>
<path d="M170.25 68.4688C166.359 68.4688 163.211 67.3125 160.805 65C158.398 62.6719 157.195 59.6484 157.195 55.9297V55.2734C157.195 52.6797 157.672 50.3906 158.625 48.4062C159.594 46.4219 161 44.8906 162.844 43.8125C164.688 42.7188 166.875 42.1719 169.406 42.1719C172.969 42.1719 175.781 43.2812 177.844 45.5C179.906 47.7031 180.938 50.7812 180.938 54.7344V57.8047H165.234C165.516 59.2266 166.133 60.3438 167.086 61.1562C168.039 61.9688 169.273 62.375 170.789 62.375C173.289 62.375 175.242 61.5 176.648 59.75L180.258 64.0156C179.273 65.375 177.875 66.4609 176.062 67.2734C174.266 68.0703 172.328 68.4688 170.25 68.4688ZM169.359 48.2656C167.047 48.2656 165.672 49.7969 165.234 52.8594H173.203V52.25C173.234 50.9844 172.914 50.0078 172.242 49.3203C171.57 48.6172 170.609 48.2656 169.359 48.2656Z" fill="#43DDE6"/>
<path d="M11.4141 78.3359V84.6406H15.5859V90.125H11.4141V101.727C11.4141 102.68 11.5859 103.344 11.9297 103.719C12.2734 104.094 12.9531 104.281 13.9688 104.281C14.75 104.281 15.4062 104.234 15.9375 104.141V109.789C14.5156 110.242 13.0312 110.469 11.4844 110.469C8.76562 110.469 6.75781 109.828 5.46094 108.547C4.16406 107.266 3.51562 105.32 3.51562 102.711V90.125H0.28125V84.6406H3.51562V78.3359H11.4141Z" fill="#43DDE6"/>
<path d="M34.0547 91.7891L31.4531 91.6016C28.9688 91.6016 27.375 92.3828 26.6719 93.9453V110H18.7734V84.6406H26.1797L26.4375 87.8984C27.7656 85.4141 29.6172 84.1719 31.9922 84.1719C32.8359 84.1719 33.5703 84.2656 34.1953 84.4531L34.0547 91.7891Z" fill="#43DDE6"/>
<path d="M50.4844 110C50.2031 109.484 49.9531 108.727 49.7344 107.727C48.2812 109.555 46.25 110.469 43.6406 110.469C41.25 110.469 39.2188 109.75 37.5469 108.312C35.875 106.859 35.0391 105.039 35.0391 102.852C35.0391 100.102 36.0547 98.0234 38.0859 96.6172C40.1172 95.2109 43.0703 94.5078 46.9453 94.5078H49.3828V93.1719C49.3828 90.8438 48.375 89.6797 46.3594 89.6797C44.4844 89.6797 43.5469 90.6016 43.5469 92.4453H35.6484C35.6484 89.9922 36.6875 88 38.7656 86.4688C40.8594 84.9375 43.5234 84.1719 46.7578 84.1719C49.9922 84.1719 52.5469 84.9609 54.4219 86.5391C56.2969 88.1172 57.2578 90.2812 57.3047 93.0312V104.258C57.3359 106.586 57.6953 108.367 58.3828 109.602V110H50.4844ZM45.5391 104.844C46.5234 104.844 47.3359 104.633 47.9766 104.211C48.6328 103.789 49.1016 103.312 49.3828 102.781V98.7266H47.0859C44.3359 98.7266 42.9609 99.9609 42.9609 102.43C42.9609 103.148 43.2031 103.734 43.6875 104.188C44.1719 104.625 44.7891 104.844 45.5391 104.844Z" fill="#43DDE6"/>
<path d="M72.4219 104.375C73.5312 104.375 74.3906 104.078 75 103.484C75.6094 102.875 75.9062 102.031 75.8906 100.953H83.2969C83.2969 103.734 82.2969 106.016 80.2969 107.797C78.3125 109.578 75.75 110.469 72.6094 110.469C68.9219 110.469 66.0156 109.312 63.8906 107C61.7656 104.688 60.7031 101.484 60.7031 97.3906V97.0625C60.7031 94.5 61.1719 92.2422 62.1094 90.2891C63.0625 88.3203 64.4297 86.8125 66.2109 85.7656C67.9922 84.7031 70.1016 84.1719 72.5391 84.1719C75.8359 84.1719 78.4531 85.0859 80.3906 86.9141C82.3281 88.7422 83.2969 91.2188 83.2969 94.3438H75.8906C75.8906 93.0312 75.5703 92.0234 74.9297 91.3203C74.2891 90.6172 73.4297 90.2656 72.3516 90.2656C70.3047 90.2656 69.1094 91.5703 68.7656 94.1797C68.6562 95.0078 68.6016 96.1484 68.6016 97.6016C68.6016 100.148 68.9062 101.914 69.5156 102.898C70.125 103.883 71.0938 104.375 72.4219 104.375Z" fill="#43DDE6"/>
<path d="M96.8203 100.555L94.5938 102.781V110H86.6953V73.9766H94.5938V93.1016L95.3906 92.0469L101.344 84.6406H110.812L101.93 95.0703L111.398 110H102.352L96.8203 100.555Z" fill="#43DDE6"/>
<path d="M124.688 110.469C120.797 110.469 117.648 109.312 115.242 107C112.836 104.672 111.633 101.648 111.633 97.9297V97.2734C111.633 94.6797 112.109 92.3906 113.062 90.4062C114.031 88.4219 115.438 86.8906 117.281 85.8125C119.125 84.7188 121.312 84.1719 123.844 84.1719C127.406 84.1719 130.219 85.2812 132.281 87.5C134.344 89.7031 135.375 92.7812 135.375 96.7344V99.8047H119.672C119.953 101.227 120.57 102.344 121.523 103.156C122.477 103.969 123.711 104.375 125.227 104.375C127.727 104.375 129.68 103.5 131.086 101.75L134.695 106.016C133.711 107.375 132.312 108.461 130.5 109.273C128.703 110.07 126.766 110.469 124.688 110.469ZM123.797 90.2656C121.484 90.2656 120.109 91.7969 119.672 94.8594H127.641V94.25C127.672 92.9844 127.352 92.0078 126.68 91.3203C126.008 90.6172 125.047 90.2656 123.797 90.2656Z" fill="#43DDE6"/>
<path d="M153.914 91.7891L151.312 91.6016C148.828 91.6016 147.234 92.3828 146.531 93.9453V110H138.633V84.6406H146.039L146.297 87.8984C147.625 85.4141 149.477 84.1719 151.852 84.1719C152.695 84.1719 153.43 84.2656 154.055 84.4531L153.914 91.7891Z" fill="#43DDE6"/>
<path d="M140 39H146V44H140V39Z" fill="#43DDE6"/>
<path d="M140 67H146V72H140V67Z" fill="#43DDE6"/>
</svg>
