<svg width="401" height="46" viewBox="0 0 401 46" fill="none" xmlns="http://www.w3.org/2000/svg">
<path d="M19.7062 30.893C19.7062 29.9988 19.234 29.2813 18.2896 28.7406C17.3452 28.1999 15.5509 27.6384 12.9066 27.0562C10.2623 26.4739 8.07975 25.7148 6.35887 24.779C4.63799 23.8223 3.32634 22.6682 2.42392 21.3164C1.52151 19.9646 1.0703 18.4153 1.0703 16.6684C1.0703 13.5698 2.36097 11.0223 4.94229 9.02585C7.52361 7.00862 10.9024 6 15.0787 6C19.5698 6 23.1794 7.00862 25.9077 9.02585C28.6359 11.0431 30 13.6946 30 16.9804H19.3599C19.3599 14.2769 17.9223 12.9251 15.0472 12.9251C13.9349 12.9251 13.001 13.2371 12.2455 13.861C11.49 14.4641 11.1123 15.2231 11.1123 16.1381C11.1123 17.074 11.574 17.833 12.4974 18.4153C13.4208 18.9976 14.8898 19.4759 16.9045 19.8503C18.9402 20.2246 20.724 20.6717 22.256 21.1916C27.3767 22.9385 29.937 26.0683 29.937 30.5811C29.937 33.6589 28.5519 36.1649 25.7817 38.0989C23.0325 40.033 19.4648 41 15.0787 41C12.1616 41 9.55929 40.4801 7.27177 39.4403C4.98426 38.4005 3.20042 36.9863 1.92025 35.1979C0.640084 33.4094 0 31.5273 0 29.5517H9.91605C9.95803 31.1114 10.4827 32.2552 11.49 32.9831C12.4974 33.6901 13.788 34.0437 15.362 34.0437C16.8101 34.0437 17.8909 33.7525 18.6044 33.1702C19.3389 32.5879 19.7062 31.8289 19.7062 30.893Z" fill="#43DDE6"/>
<path d="M11 0H19V7H11V0Z" fill="#43DDE6"/>
<path d="M11 39H19V46H11V39Z" fill="#43DDE6"/>
<path d="M58.0984 15.7589L58.3107 18.2036C59.7903 16.3171 61.7781 15.3739 64.2741 15.3739C66.9116 15.3739 68.6935 16.4198 69.6198 18.5117C71.0351 16.4198 73.0808 15.3739 75.7569 15.3739C79.9897 15.3739 82.1641 17.9277 82.2799 23.0355V36.5876H75.7569V23.4397C75.7569 22.3745 75.5767 21.5981 75.2165 21.1104C74.8562 20.6228 74.2001 20.3789 73.248 20.3789C71.9614 20.3789 71.0029 20.95 70.3725 22.0922L70.3918 22.3617V36.5876H63.8688V23.4782C63.8688 22.3874 63.6951 21.5981 63.3477 21.1104C63.0003 20.6228 62.3377 20.3789 61.3599 20.3789C60.1119 20.3789 59.1599 20.95 58.5037 22.0922V36.5876H52V15.7589H58.0984Z" fill="#43DDE6"/>
<path d="M94.3416 27.5015L97.8154 15.7589H104.782L96.2715 40.0719L95.9048 40.9574C94.6954 43.6525 92.5597 45 89.4976 45C88.6485 45 87.7543 44.8717 86.8151 44.615V39.9757H87.6642C88.5777 39.9757 89.2725 39.8409 89.7485 39.5714C90.2374 39.3148 90.5977 38.8463 90.8292 38.1662L91.3503 36.7801L84.094 15.7589H91.0415L94.3416 27.5015Z" fill="#43DDE6"/>
<path d="M126.436 36.9726C123.232 36.9726 120.639 36.023 118.658 34.1236C116.677 32.2114 115.686 29.7281 115.686 26.6738V26.1348C115.686 24.0044 116.079 22.1243 116.863 20.4944C117.661 18.8646 118.819 17.6069 120.337 16.7214C121.855 15.823 123.657 15.3739 125.741 15.3739C128.674 15.3739 130.99 16.285 132.688 18.1074C134.387 19.9169 135.236 22.4451 135.236 25.692V28.2138H122.306C122.537 29.3816 123.045 30.2992 123.83 30.9666C124.615 31.6339 125.631 31.9676 126.879 31.9676C128.938 31.9676 130.546 31.2489 131.704 29.8116L134.676 33.3151C133.866 34.4316 132.714 35.3235 131.222 35.9909C129.742 36.6454 128.147 36.9726 126.436 36.9726ZM125.702 20.3789C123.798 20.3789 122.666 21.6366 122.306 24.152H128.867V23.6515C128.893 22.612 128.629 21.8099 128.076 21.2452C127.523 20.6677 126.731 20.3789 125.702 20.3789Z" fill="#43DDE6"/>
<path d="M146.333 21.4954L149.363 15.7589H156.117L150.617 25.9037L156.387 36.5876H149.594L146.313 30.4276L143.09 36.5876H136.259L142.048 25.9037L136.567 15.7589H143.399L146.333 21.4954Z" fill="#43DDE6"/>
<path d="M177.597 26.3273C177.597 29.5613 176.863 32.1472 175.397 34.0851C173.943 36.0101 171.974 36.9726 169.491 36.9726C167.574 36.9726 165.998 36.2732 164.763 34.8744V44.5957H158.259V15.7589H164.338L164.531 17.6839C165.779 16.1439 167.42 15.3739 169.453 15.3739C172.026 15.3739 174.026 16.3235 175.455 18.2229C176.883 20.1094 177.597 22.7082 177.597 26.0193V26.3273ZM171.093 25.923C171.093 22.2269 170.012 20.3789 167.851 20.3789C166.307 20.3789 165.278 20.9308 164.763 22.0344V30.2351C165.329 31.3901 166.371 31.9676 167.889 31.9676C169.961 31.9676 171.029 30.1837 171.093 26.616V25.923Z" fill="#43DDE6"/>
<path d="M190.585 36.9726C187.381 36.9726 184.789 36.023 182.807 34.1236C180.826 32.2114 179.835 29.7281 179.835 26.6738V26.1348C179.835 24.0044 180.228 22.1243 181.013 20.4944C181.81 18.8646 182.968 17.6069 184.486 16.7214C186.005 15.823 187.806 15.3739 189.89 15.3739C192.824 15.3739 195.139 16.285 196.838 18.1074C198.536 19.9169 199.385 22.4451 199.385 25.692V28.2138H186.455C186.687 29.3816 187.195 30.2992 187.98 30.9666C188.764 31.6339 189.781 31.9676 191.029 31.9676C193.087 31.9676 194.696 31.2489 195.853 29.8116L198.825 33.3151C198.015 34.4316 196.863 35.3235 195.371 35.9909C193.891 36.6454 192.296 36.9726 190.585 36.9726ZM189.852 20.3789C187.947 20.3789 186.815 21.6366 186.455 24.152H193.017V23.6515C193.042 22.612 192.779 21.8099 192.225 21.2452C191.672 20.6677 190.881 20.3789 189.852 20.3789Z" fill="#43DDE6"/>
<path d="M207.992 15.7589L208.205 18.2036C209.646 16.3171 211.633 15.3739 214.168 15.3739C216.342 15.3739 217.963 16.022 219.031 17.3181C220.112 18.6143 220.672 20.565 220.71 23.1702V36.5876H214.187V23.4397C214.187 22.3874 213.975 21.6174 213.55 21.1297C213.126 20.6292 212.354 20.3789 211.235 20.3789C209.961 20.3789 209.015 20.8794 208.398 21.8804V36.5876H201.894V15.7589H207.992Z" fill="#43DDE6"/>
<path d="M235.262 30.7356C235.262 30.1837 234.972 29.741 234.393 29.4073C233.814 29.0736 232.714 28.7271 231.093 28.3678C229.472 28.0084 228.134 27.54 227.079 26.9625C226.024 26.3722 225.22 25.6599 224.667 24.8257C224.113 23.9916 223.837 23.0355 223.837 21.9574C223.837 20.0453 224.628 18.4732 226.211 17.2411C227.793 15.9963 229.864 15.3739 232.425 15.3739C235.178 15.3739 237.391 15.9963 239.064 17.2411C240.736 18.486 241.572 20.1223 241.572 22.1499H235.049C235.049 20.4816 234.168 19.6474 232.405 19.6474C231.724 19.6474 231.151 19.8399 230.688 20.2249C230.225 20.5971 229.993 21.0655 229.993 21.6302C229.993 22.2077 230.276 22.6761 230.842 23.0355C231.408 23.3948 232.309 23.69 233.544 23.921C234.792 24.152 235.886 24.4279 236.825 24.7487C239.964 25.8267 241.534 27.7582 241.534 30.5431C241.534 32.4424 240.685 33.9889 238.986 35.1824C237.301 36.3759 235.114 36.9726 232.425 36.9726C230.636 36.9726 229.041 36.6518 227.639 36.0101C226.236 35.3685 225.143 34.4958 224.358 33.3921C223.573 32.2884 223.181 31.127 223.181 29.9078H229.26C229.285 30.8703 229.607 31.5762 230.225 32.0253C230.842 32.4617 231.633 32.6798 232.598 32.6798C233.486 32.6798 234.149 32.5002 234.586 32.1408C235.037 31.7815 235.262 31.3131 235.262 30.7356Z" fill="#43DDE6"/>
<path d="M254.696 36.9726C251.492 36.9726 248.9 36.023 246.918 34.1236C244.937 32.2114 243.946 29.7281 243.946 26.6738V26.1348C243.946 24.0044 244.339 22.1243 245.123 20.4944C245.921 18.8646 247.079 17.6069 248.597 16.7214C250.115 15.823 251.917 15.3739 254.001 15.3739C256.934 15.3739 259.25 16.285 260.948 18.1074C262.647 19.9169 263.496 22.4451 263.496 25.692V28.2138H250.566C250.797 29.3816 251.305 30.2992 252.09 30.9666C252.875 31.6339 253.891 31.9676 255.139 31.9676C257.198 31.9676 258.806 31.2489 259.964 29.8116L262.936 33.3151C262.126 34.4316 260.974 35.3235 259.482 35.9909C258.002 36.6454 256.407 36.9726 254.696 36.9726ZM253.962 20.3789C252.058 20.3789 250.926 21.6366 250.566 24.152H257.127V23.6515C257.153 22.612 256.889 21.8099 256.336 21.2452C255.783 20.6677 254.992 20.3789 253.962 20.3789Z" fill="#43DDE6"/>
<path d="M283.547 10.5805V15.7589H286.983V20.2634H283.547V29.7923C283.547 30.5751 283.689 31.1206 283.972 31.4286C284.255 31.7366 284.815 31.8906 285.651 31.8906C286.294 31.8906 286.835 31.8521 287.272 31.7751V36.4144C286.101 36.7866 284.879 36.9726 283.605 36.9726C281.367 36.9726 279.713 36.4465 278.645 35.3941C277.578 34.3418 277.044 32.744 277.044 30.6008V20.2634H274.38V15.7589H277.044V10.5805H283.547Z" fill="#43DDE6"/>
<path d="M302.19 21.6302L300.048 21.4762C298.002 21.4762 296.69 22.1179 296.111 23.4012V36.5876H289.607V15.7589H295.706L295.918 18.4347C297.011 16.3941 298.536 15.3739 300.492 15.3739C301.186 15.3739 301.791 15.4509 302.306 15.6049L302.19 21.6302Z" fill="#43DDE6"/>
<path d="M315.718 36.5876C315.487 36.1641 315.281 35.5417 315.101 34.7204C313.904 36.2219 312.232 36.9726 310.083 36.9726C308.115 36.9726 306.442 36.3823 305.066 35.2016C303.689 34.0081 303.001 32.513 303.001 30.7163C303.001 28.4576 303.837 26.7508 305.509 25.5957C307.182 24.4407 309.614 23.8632 312.804 23.8632H314.811V22.766C314.811 20.8538 313.982 19.8977 312.322 19.8977C310.778 19.8977 310.006 20.6548 310.006 22.1692H303.502C303.502 20.1543 304.358 18.5181 306.069 17.2604C307.793 16.0027 309.987 15.3739 312.65 15.3739C315.313 15.3739 317.417 16.022 318.961 17.3181C320.505 18.6143 321.296 20.3918 321.334 22.6505V31.8713C321.36 33.7835 321.656 35.2465 322.222 36.2604V36.5876H315.718ZM311.646 32.3526C312.457 32.3526 313.126 32.1793 313.654 31.8328C314.194 31.4863 314.58 31.0949 314.811 30.6586V27.3283H312.92C310.656 27.3283 309.524 28.3421 309.524 30.3698C309.524 30.9601 309.723 31.4414 310.122 31.8136C310.521 32.1729 311.029 32.3526 311.646 32.3526Z" fill="#43DDE6"/>
<path d="M333.782 31.9676C334.696 31.9676 335.403 31.7237 335.905 31.2361C336.407 30.7356 336.651 30.0426 336.638 29.157H342.737C342.737 31.4414 341.913 33.3151 340.267 34.7781C338.633 36.2411 336.523 36.9726 333.937 36.9726C330.9 36.9726 328.507 36.023 326.757 34.1236C325.008 32.2242 324.133 29.5934 324.133 26.231V25.9615C324.133 23.8568 324.519 22.0024 325.291 20.3982C326.076 18.7812 327.201 17.5427 328.668 16.6829C330.135 15.8102 331.872 15.3739 333.879 15.3739C336.593 15.3739 338.748 16.1246 340.344 17.6261C341.939 19.1277 342.737 21.1618 342.737 23.7285H336.638C336.638 22.6505 336.375 21.8227 335.847 21.2452C335.32 20.6677 334.612 20.3789 333.724 20.3789C332.039 20.3789 331.055 21.4505 330.772 23.5937C330.682 24.2739 330.636 25.2107 330.636 26.4043C330.636 28.4961 330.887 29.9463 331.389 30.7548C331.891 31.5633 332.689 31.9676 333.782 31.9676Z" fill="#43DDE6"/>
<path d="M353.872 28.8298L352.039 30.6586V36.5876H345.535V7H352.039V22.7082L352.695 21.8419L357.597 15.7589H365.394L358.079 24.3252L365.876 36.5876H358.427L353.872 28.8298Z" fill="#43DDE6"/>
<path d="M376.819 36.9726C373.615 36.9726 371.022 36.023 369.041 34.1236C367.06 32.2114 366.069 29.7281 366.069 26.6738V26.1348C366.069 24.0044 366.462 22.1243 367.246 20.4944C368.044 18.8646 369.202 17.6069 370.72 16.7214C372.238 15.823 374.04 15.3739 376.124 15.3739C379.057 15.3739 381.373 16.285 383.071 18.1074C384.77 19.9169 385.619 22.4451 385.619 25.692V28.2138H372.689C372.92 29.3816 373.428 30.2992 374.213 30.9666C374.998 31.6339 376.014 31.9676 377.262 31.9676C379.321 31.9676 380.929 31.2489 382.087 29.8116L385.059 33.3151C384.249 34.4316 383.097 35.3235 381.605 35.9909C380.125 36.6454 378.53 36.9726 376.819 36.9726ZM376.085 20.3789C374.181 20.3789 373.049 21.6366 372.689 24.152H379.25V23.6515C379.276 22.612 379.012 21.8099 378.459 21.2452C377.906 20.6677 377.114 20.3789 376.085 20.3789Z" fill="#43DDE6"/>
<path d="M400.884 21.6302L398.742 21.4762C396.696 21.4762 395.384 22.1179 394.805 23.4012V36.5876H388.301V15.7589H394.4L394.612 18.4347C395.706 16.3941 397.23 15.3739 399.186 15.3739C399.881 15.3739 400.485 15.4509 401 15.6049L400.884 21.6302Z" fill="#43DDE6"/>
</svg>
