<svg width="376" height="112" viewBox="0 0 376 112" fill="none" xmlns="http://www.w3.org/2000/svg">
<g clip-path="url(#clip0)">
<path d="M40.5367 111.625V110.248L43.1722 109.998V90.1005H36.6462L36.3952 93.6045H34.8892V88.4737H53.3378V93.6045H51.8318L51.5807 90.1005H45.0547V110.123L47.6902 110.373V111.75H40.5367V111.625Z" fill="#F0F0F0"/>
<path d="M82.2031 111.75V110.373L84.8386 110.123V90.1005L82.2031 89.8503V88.4737H91.9922C93.6237 88.4737 95.0042 88.724 96.2592 89.2246C97.5142 89.7251 98.2672 90.476 98.8947 91.3519C99.5222 92.2279 99.7732 93.4793 99.7732 94.8559C99.7732 96.2324 99.5222 97.3586 98.8947 98.2346C98.2672 99.1106 97.3887 99.8614 96.2592 100.362C95.1297 100.863 93.8747 101.113 92.3687 101.113H86.8466V110.123L89.4822 110.373V111.75H82.2031ZM86.5957 99.486H91.6157C93.7492 99.486 95.2552 99.1106 96.1337 98.2346C97.1377 97.3586 97.6397 96.2324 97.6397 94.8559C97.6397 93.3542 97.1377 92.2279 96.1337 91.3519C95.1297 90.476 93.7492 90.1005 91.7412 90.1005H86.5957V99.486ZM97.7652 111.75L92.7452 100.237H94.6277L99.0202 110.248L100.903 110.373V111.75H97.7652V111.75Z" fill="#F0F0F0"/>
<path d="M129.893 111.625V110.248L131.65 110.123L139.933 88.4737H141.69L149.848 110.123L151.605 110.248V111.625H145.832V110.248L147.84 110.123L145.957 104.867H135.541L133.658 110.123L135.666 110.248V111.625H129.893ZM136.168 103.24H145.33L141.188 91.8525L140.812 90.9765H140.686L140.31 91.8525L136.168 103.24Z" fill="#F0F0F0"/>
<path d="M190.008 112C187.749 112 185.741 111.499 184.235 110.498C182.729 109.497 181.474 108.121 180.721 106.369C179.968 104.617 179.466 102.615 179.466 100.237V99.9866C179.466 97.7341 179.842 95.6067 180.721 93.8547C181.599 92.1028 182.729 90.7262 184.235 89.7251C185.741 88.724 187.498 88.2234 189.631 88.2234C191.263 88.2234 192.643 88.4737 193.773 88.8491C194.902 89.3497 195.906 89.8503 196.785 90.7262V95.2313H195.153L195.028 91.6022C194.526 91.2268 194.024 90.9765 193.522 90.7262C193.02 90.476 192.392 90.3508 191.765 90.1005C191.137 89.9754 190.384 89.8503 189.506 89.8503C187.874 89.8503 186.368 90.2257 185.113 91.1017C183.858 91.9776 182.98 93.1039 182.227 94.6056C181.599 96.1072 181.223 97.8592 181.223 99.8614V100.237C181.223 102.239 181.599 104.116 182.227 105.618C182.854 107.12 183.858 108.246 185.239 109.122C186.619 109.998 188.125 110.373 189.882 110.373C190.886 110.373 191.765 110.248 192.769 109.998C193.773 109.747 194.4 109.372 195.028 108.997L195.153 105.493H196.785V110.123C195.781 110.749 194.777 111.249 193.647 111.499C192.518 111.875 191.263 112 190.008 112Z" fill="#F0F0F0"/>
<path d="M226.152 111.625V110.248L228.788 109.998V90.1005L226.152 89.8503V88.4737H233.306V89.8503L230.67 90.1005V110.123L233.306 110.373V111.75H226.152V111.625ZM230.294 105.242L229.415 103.866L241.714 90.2257V90.1005L239.455 89.9754V88.5989H245.981V89.9754L243.973 90.1005L230.294 105.242ZM240.083 111.625V110.248L242.342 110.123L234.686 99.6111L235.941 98.2346L244.726 109.998L246.734 110.248V111.625H240.083V111.625Z" fill="#F0F0F0"/>
<path d="M275.098 111.625V110.248L277.733 109.998V90.1005L275.098 89.8503V88.4737H291.789V93.4793H290.158L290.032 89.9754H279.616V98.7352H289.028V100.362H279.616V110.123H290.534L290.66 106.619H292.291V111.625H275.098Z" fill="#F0F0F0"/>
<path d="M321.784 111.75V110.373L324.419 110.123V90.1005L321.784 89.8503V88.4737H331.573C333.204 88.4737 334.585 88.724 335.84 89.2246C337.095 89.7251 337.848 90.476 338.475 91.3519C339.103 92.2279 339.354 93.4793 339.354 94.8559C339.354 96.2324 339.103 97.3586 338.475 98.2346C337.848 99.1106 336.969 99.8614 335.84 100.362C334.71 100.863 333.455 101.113 331.949 101.113H326.427V110.123L329.063 110.373V111.75H321.784ZM326.302 99.486H331.322C333.455 99.486 334.961 99.1106 335.84 98.2346C336.844 97.3586 337.346 96.2324 337.346 94.8559C337.346 93.3542 336.844 92.2279 335.84 91.3519C334.836 90.476 333.455 90.1005 331.447 90.1005H326.302V99.486ZM337.346 111.75L332.326 100.237H334.208L338.601 110.248L340.483 110.373V111.75H337.346V111.75Z" fill="#F0F0F0"/>
<path d="M32.5047 51.4324L26.4806 42.0469L19.7036 51.4324H0L16.6916 29.6581L0.502003 7.50836H20.9586L27.2336 16.7687L33.8852 7.50836H52.9613L36.7717 28.9072L53.3378 51.4324H32.5047Z" fill="#F0F0F0"/>
<path d="M158.382 9.51061C161.645 11.3877 164.155 14.0156 166.163 17.5196C168.045 21.0235 169.049 25.0279 169.049 29.533C169.049 34.038 168.045 38.0425 166.163 41.5464C164.28 45.0503 161.645 47.6782 158.382 49.4302C155.119 51.3073 151.605 52.1832 147.714 52.1832C142.82 52.1832 139.055 50.9318 136.545 48.429V66.9497H118.347V7.50838H135.666V11.1374C138.302 8.25921 142.318 6.75754 147.714 6.75754C151.605 6.75754 155.119 7.63352 158.382 9.51061ZM148.593 35.9151C149.973 34.4134 150.601 32.286 150.601 29.533C150.601 26.7799 149.973 24.6525 148.593 23.1508C147.212 21.6492 145.581 20.8983 143.447 20.8983C141.314 20.8983 139.682 21.6492 138.302 23.1508C136.921 24.6525 136.294 26.7799 136.294 29.533C136.294 32.286 136.921 34.4134 138.302 35.9151C139.682 37.4168 141.314 38.1676 143.447 38.1676C145.455 38.0425 147.212 37.4168 148.593 35.9151Z" fill="#F0F0F0"/>
<path d="M221.258 33.6626H190.636C191.263 35.2894 192.393 36.5408 193.899 37.4167C195.405 38.2927 197.287 38.7933 199.546 38.7933C201.429 38.7933 203.06 38.543 204.441 38.0424C205.696 37.5419 207.202 36.791 208.708 35.5396L218.246 45.0503C213.979 49.8056 207.578 52.0581 199.044 52.0581C193.773 52.0581 189.13 51.057 184.988 49.1799C180.972 47.1776 177.835 44.5497 175.701 41.0458C173.442 37.5419 172.438 33.6626 172.438 29.2827C172.438 24.9028 173.568 21.0234 175.701 17.5195C177.835 14.0156 180.847 11.3877 184.612 9.5106C188.377 7.6335 192.644 6.63239 197.413 6.63239C201.805 6.63239 205.947 7.50836 209.586 9.26032C213.226 11.0123 216.238 13.6402 218.371 17.019C220.505 20.3977 221.634 24.5274 221.634 29.2827C221.509 29.6581 221.383 31.1598 221.258 33.6626ZM192.769 20.648C191.514 21.6491 190.761 23.1508 190.385 25.0279H204.566C204.19 23.1508 203.437 21.7743 202.182 20.7732C200.927 19.7721 199.421 19.1464 197.538 19.1464C195.53 19.1464 194.024 19.6469 192.769 20.648Z" fill="#F0F0F0"/>
<path d="M270.83 11.638C274.093 14.8916 275.725 19.7721 275.725 26.4045V51.4324H257.527V29.533C257.527 24.5274 255.77 22.0246 252.131 22.0246C250.123 22.0246 248.491 22.7754 247.236 24.1519C245.981 25.5285 245.354 27.781 245.354 30.9095V51.5575H227.156V7.50838H244.475V11.8883C246.232 10.1363 248.115 8.88491 250.374 8.00893C252.633 7.13296 255.017 6.75754 257.653 6.75754C263.175 6.75754 267.567 8.38435 270.83 11.638Z" fill="#F0F0F0"/>
<path d="M289.781 51.057C286.141 50.3061 283.129 49.1799 280.87 47.9285L285.89 35.9151C287.898 37.1665 290.283 38.1676 293.169 38.7933C295.93 39.5441 298.691 39.7944 301.327 39.7944C303.46 39.7944 304.841 39.6693 305.719 39.2938C306.598 38.9184 306.974 38.4179 306.974 37.667C306.974 36.9162 306.472 36.5408 305.343 36.1653C304.339 35.9151 302.582 35.6648 300.197 35.4145C296.558 35.0391 293.546 34.4134 291.036 33.7877C288.526 33.162 286.267 31.7855 284.384 29.9084C282.502 28.0313 281.498 25.2782 281.498 21.6491C281.498 18.7709 282.376 16.2681 284.133 14.0156C285.89 11.7631 288.4 10.0112 291.789 8.63462C295.177 7.25808 299.319 6.63239 304.088 6.63239C307.351 6.63239 310.614 6.88266 313.877 7.50836C317.014 8.13406 319.775 9.01004 322.034 10.1363L317.014 22.1497C313.124 20.0223 308.857 18.8961 304.339 18.8961C300.323 18.8961 298.44 19.6469 298.44 21.0234C298.44 21.7743 298.942 22.2748 300.072 22.5251C301.201 22.7754 302.833 23.1508 305.092 23.4011C308.731 23.7765 311.743 24.4022 314.253 25.0279C316.763 25.7788 318.897 27.0301 320.905 28.9072C322.787 30.7843 323.791 33.5374 323.791 37.1665C323.791 39.9195 322.913 42.4223 321.156 44.6748C319.399 46.9274 316.889 48.6793 313.375 50.0559C309.986 51.4324 305.845 52.0581 300.95 52.0581C297.185 52.1832 293.42 51.8078 289.781 51.057Z" fill="#EF5284"/>
<path d="M375.749 33.6626H345.127C345.754 35.2894 346.884 36.5408 348.39 37.4167C349.896 38.2927 351.778 38.7933 354.037 38.7933C355.92 38.7933 357.551 38.543 358.932 38.0424C360.187 37.5419 361.693 36.791 363.199 35.5396L372.737 45.0503C368.47 49.8056 362.069 52.0581 353.535 52.0581C348.264 52.0581 343.621 51.057 339.479 49.1799C335.463 47.1776 332.326 44.5497 330.192 41.0458C327.933 37.5419 326.929 33.6626 326.929 29.2827C326.929 24.9028 328.059 21.0234 330.192 17.5195C332.326 14.0156 335.338 11.3877 339.103 9.5106C342.868 7.6335 347.135 6.63239 351.904 6.63239C356.296 6.63239 360.438 7.50836 364.077 9.26032C367.717 11.0123 370.729 13.6402 372.862 17.019C374.996 20.3977 376.125 24.5274 376.125 29.2827C376 29.6581 375.874 31.1598 375.749 33.6626ZM347.26 20.648C346.005 21.6491 345.252 23.1508 344.876 25.0279H358.932C358.555 23.1508 357.802 21.7743 356.547 20.7732C355.292 19.7721 353.786 19.1464 351.904 19.1464C350.021 19.1464 348.515 19.6469 347.26 20.648Z" fill="#F0F0F0"/>
<path d="M102.911 20.8983H59.2363V36.7911H102.911V20.8983Z" fill="#EF5284"/>
<path d="M309.209 58.1245V46.2362H293.27V58.1245H309.209Z" fill="#EF5284"/>
<path d="M309.219 12.458V-0.0559387L293.28 -0.0559387V12.458L309.219 12.458Z" fill="#EF5284"/>
</g>
<defs>
<clipPath id="clip0">
<rect width="376" height="112" fill="white"/>
</clipPath>
</defs>
</svg>
