<svg width="139" height="25" viewBox="0 0 139 25" fill="none" xmlns="http://www.w3.org/2000/svg">
<path d="M12.0123 19.0943L9.78612 15.6137L7.28161 19.0943H0L6.1685 11.0194L0.185519 2.80518H7.74541L10.0644 6.23936L12.5225 2.80518H19.5722L13.5893 10.7409L19.7114 19.0943H12.0123Z" fill="#F0F0F0"/>
<path d="M58.5312 3.54771C59.7371 4.24382 60.6647 5.21839 61.4068 6.51781C62.1024 7.81723 62.4735 9.30228 62.4735 10.973C62.4735 12.6437 62.1024 14.1287 61.4068 15.4281C60.7111 16.7275 59.7371 17.7021 58.5312 18.3518C57.3253 19.0479 56.0267 19.3728 54.5889 19.3728C52.7801 19.3728 51.3887 18.9087 50.4611 17.9806V24.8489H43.7361V2.80518H50.1365V4.15101C51.1105 3.08363 52.5946 2.52673 54.5889 2.52673C56.0267 2.52673 57.3253 2.85159 58.5312 3.54771ZM54.9136 13.3398C55.4238 12.7829 55.6557 11.9939 55.6557 10.973C55.6557 9.95199 55.4238 9.16306 54.9136 8.60617C54.4034 8.04927 53.8005 7.77082 53.012 7.77082C52.2236 7.77082 51.6206 8.04927 51.1105 8.60617C50.6003 9.16306 50.3684 9.95199 50.3684 10.973C50.3684 11.9939 50.6003 12.7829 51.1105 13.3398C51.6206 13.8967 52.2236 14.1751 53.012 14.1751C53.7541 14.1287 54.4034 13.8967 54.9136 13.3398Z" fill="#F0F0F0"/>
<path d="M81.7675 12.5044H70.4509C70.6828 13.1077 71.1002 13.5718 71.6568 13.8967C72.2133 14.2215 72.909 14.4072 73.7439 14.4072C74.4395 14.4072 75.0425 14.3144 75.5527 14.1287C76.0165 13.9431 76.573 13.6646 77.1296 13.2006L80.6544 16.7276C79.0775 18.4911 76.7122 19.3264 73.5583 19.3264C71.6104 19.3264 69.8943 18.9551 68.3638 18.259C66.8797 17.5165 65.7202 16.5419 64.9317 15.2425C64.0969 13.9431 63.7258 12.5044 63.7258 10.8802C63.7258 9.2559 64.1433 7.81725 64.9317 6.51783C65.7202 5.21841 66.8333 4.24385 68.2247 3.54773C69.6161 2.85161 71.193 2.48035 72.9554 2.48035C74.5787 2.48035 76.1092 2.8052 77.4542 3.45491C78.7992 4.10462 79.9124 5.07919 80.7008 6.3322C81.4893 7.58521 81.9067 9.11667 81.9067 10.8802C81.8603 11.0194 81.8139 11.5763 81.7675 12.5044ZM71.2394 7.67803C70.7756 8.04929 70.4973 8.60619 70.3581 9.3023H75.599C75.4599 8.60619 75.1816 8.0957 74.7178 7.72444C74.254 7.35317 73.6975 7.12113 73.0018 7.12113C72.2597 7.12113 71.7031 7.30677 71.2394 7.67803Z" fill="#F0F0F0"/>
<path d="M100.087 4.33664C101.293 5.54325 101.896 7.35315 101.896 9.81277V19.0943H95.1712V10.973C95.1712 9.11665 94.5218 8.18849 93.1768 8.18849C92.4347 8.18849 91.8318 8.46694 91.368 8.97743C90.9042 9.48791 90.6723 10.3233 90.6723 11.4835V19.1408H83.9473V2.80518H90.3477V4.42946C90.997 3.77975 91.6927 3.31567 92.5275 2.99081C93.3623 2.66596 94.2436 2.52673 95.2175 2.52673C97.2582 2.52673 98.8815 3.13004 100.087 4.33664Z" fill="#F0F0F0"/>
<path d="M107.091 18.9551C105.746 18.6767 104.633 18.259 103.798 17.7949L105.653 13.3398C106.395 13.8039 107.276 14.1751 108.343 14.4072C109.363 14.6856 110.384 14.7784 111.358 14.7784C112.146 14.7784 112.656 14.732 112.981 14.5928C113.306 14.4536 113.445 14.2679 113.445 13.9895C113.445 13.7111 113.259 13.5718 112.842 13.4326C112.471 13.3398 111.822 13.247 110.94 13.1542C109.595 13.0149 108.482 12.7829 107.555 12.5509C106.627 12.3188 105.792 11.8083 105.096 11.1122C104.401 10.4161 104.03 9.39512 104.03 8.04929C104.03 6.98191 104.354 6.05375 105.004 5.21841C105.653 4.38307 106.581 3.73336 107.833 3.22287C109.085 2.71239 110.616 2.48035 112.378 2.48035C113.584 2.48035 114.79 2.57316 115.996 2.8052C117.155 3.03724 118.176 3.3621 119.01 3.77977L117.155 8.23492C115.717 7.44599 114.141 7.02832 112.471 7.02832C110.987 7.02832 110.291 7.30677 110.291 7.81725C110.291 8.0957 110.477 8.28133 110.894 8.37415C111.311 8.46696 111.914 8.60619 112.749 8.699C114.094 8.83823 115.207 9.07027 116.135 9.3023C117.062 9.58075 117.851 10.0448 118.593 10.7409C119.289 11.4371 119.66 12.458 119.66 13.8039C119.66 14.8248 119.335 15.753 118.686 16.5883C118.036 17.4237 117.109 18.0734 115.81 18.5839C114.558 19.0944 113.027 19.3264 111.219 19.3264C109.827 19.3728 108.436 19.2336 107.091 18.9551Z" fill="#EF5284"/>
<path d="M138.861 12.5044H127.544C127.776 13.1077 128.193 13.5718 128.75 13.8967C129.307 14.2215 130.002 14.4072 130.837 14.4072C131.533 14.4072 132.136 14.3144 132.646 14.1287C133.11 13.9431 133.666 13.6646 134.223 13.2006L137.748 16.7276C136.171 18.4911 133.805 19.3264 130.652 19.3264C128.704 19.3264 126.988 18.9551 125.457 18.259C123.973 17.5165 122.813 16.5419 122.025 15.2425C121.19 13.9431 120.819 12.5044 120.819 10.8802C120.819 9.2559 121.237 7.81725 122.025 6.51783C122.813 5.21841 123.927 4.24385 125.318 3.54773C126.709 2.85161 128.286 2.48035 130.049 2.48035C131.672 2.48035 133.202 2.8052 134.547 3.45491C135.892 4.10462 137.006 5.07919 137.794 6.3322C138.583 7.58521 139 9.11667 139 10.8802C138.954 11.0194 138.907 11.5763 138.861 12.5044ZM128.333 7.67803C127.869 8.04929 127.591 8.60619 127.451 9.3023H132.646C132.507 8.60619 132.229 8.0957 131.765 7.72444C131.301 7.35317 130.744 7.12113 130.049 7.12113C129.353 7.12113 128.796 7.30677 128.333 7.67803Z" fill="#F0F0F0"/>
<path d="M38.0315 7.77087H21.8914V13.6647H38.0315V7.77087Z" fill="#EF5284"/>
<path d="M114.271 21.5762V17.1674H108.38V21.5762H114.271Z" fill="#EF5284"/>
<path d="M114.274 4.64079V0L108.384 0V4.64079L114.274 4.64079Z" fill="#EF5284"/>
</svg>
